#Comment line ignore any data following # character 
#Hierarchical Translation and Rotation (.htr) file 
[Header]	
#Header keywords are followed by a single value 
FileType HTR		#Single word string
DataType HTRS		#Translation followed by rotation and scale data
FileVersion 1		#integer
NumSegments 84		#integer
NumFrames 2		#integer
DataFrameRate 30		#integer, data frame rate in this file
EulerRotationOrder ZYX
CalibrationUnits mm
RotationUnits Degrees
GlobalAxisofGravity Y
BoneLengthAxis Y
ScaleFactor 1.00
[SegmentNames&Hierarchy]
#CHILD	PARENT
MASTER GLOBAL
root MASTER
chest root
L_mid_tent01 root
R_mid_tent01 root
spine01 root
Bip01_Neck chest
L_humerus chest
R_humerus chest
weapon_bone chest
Bip01_Head Bip01_Neck
eye_left_bone Bip01_Head
eye_right_bone Bip01_Head
L_forearm L_humerus
L_front_hand L_forearm
L_weapon_bone L_forearm
L_front_hand01_01 L_front_hand
L_front_hand02_01 L_front_hand
L_front_hand03_01 L_front_hand
L_front_hand01_02 L_front_hand01_01
L_front_hand02_02 L_front_hand02_01
L_front_hand03_02 L_front_hand03_01
R_forearm R_humerus
R_front_hand R_forearm
R_weapon_bone R_forearm
R_front_hand01_01 R_front_hand
R_front_hand02_01 R_front_hand
R_front_hand03_01 R_front_hand
R_front_hand01_02 R_front_hand01_01
R_front_hand02_02 R_front_hand02_01
R_front_hand03_02 R_front_hand03_01
null_rope01_connect L_mid_tent01
Rope1_Seg01 null_rope01_connect
Rope1_Seg02 Rope1_Seg01
Rope1_Seg03 Rope1_Seg02
Rope1_Seg04 Rope1_Seg03
Rope1_Seg05 Rope1_Seg04
Rope1_Seg06 Rope1_Seg05
Rope1_Seg07 Rope1_Seg06
Rope1_Seg09 Rope1_Seg07
L_mid_hand01 Rope1_Seg09
L_mid_hand02 Rope1_Seg09
L_mid_hand03 Rope1_Seg09
null_rope02_connect R_mid_tent01
Rope2_Seg01 null_rope02_connect
Rope2_Seg02 Rope2_Seg01
Rope2_Seg03 Rope2_Seg02
Rope2_Seg04 Rope2_Seg03
Rope2_Seg05 Rope2_Seg04
Rope2_Seg06 Rope2_Seg05
Rope2_Seg07 Rope2_Seg06
Rope2_Seg09 Rope2_Seg07
R_mid_hand01 Rope2_Seg09
R_mid_hand02 Rope2_Seg09
R_mid_hand03 Rope2_Seg09
spine02 spine01
spine03 spine02
pelvis spine03
null_rope03_connect pelvis
null_rope04_connect pelvis
Rope3_Seg01 null_rope03_connect
Rope3_Seg02 Rope3_Seg01
Rope3_Seg03 Rope3_Seg02
Rope3_Seg04 Rope3_Seg03
Rope3_Seg05 Rope3_Seg04
Rope3_Seg06 Rope3_Seg05
Rope3_Seg07 Rope3_Seg06
Rope3_Seg08 Rope3_Seg07
Rope3_Seg09 Rope3_Seg08
R_rear_hand01 Rope3_Seg09
R_rear_hand02 Rope3_Seg09
R_rear_hand03 Rope3_Seg09
Rope4_Seg01 null_rope04_connect
Rope4_Seg02 Rope4_Seg01
Rope4_Seg03 Rope4_Seg02
Rope4_Seg04 Rope4_Seg03
Rope4_Seg05 Rope4_Seg04
Rope4_Seg06 Rope4_Seg05
Rope4_Seg07 Rope4_Seg06
Rope4_Seg08 Rope4_Seg07
Rope4_Seg09 Rope4_Seg08
L_rear_hand01 Rope4_Seg09
L_rear_hand02 Rope4_Seg09
L_rear_hand03 Rope4_Seg09
[BasePosition]
#SegmentName Tx, Ty, Tz, Rx, Ry, Rz, BoneLength
MASTER 0.000000 0.000000 0.000000 -90.000000 0.000000 0.000000 10.000000 
root 0.000000 0.000000 0.000000 0.000000 0.000000 0.000000 10.000000 
chest 0.000000 0.000000 0.000000 0.000000 0.000000 0.000000 10.000000 
L_mid_tent01 0.000000 0.000000 0.000000 0.000000 0.000000 0.000000 10.000000 
R_mid_tent01 0.000000 0.000000 0.000000 0.000000 0.000000 0.000000 10.000000 
spine01 0.000000 0.000000 0.000000 0.000000 0.000000 0.000000 10.000000 
Bip01_Neck 0.000000 0.000000 0.000000 0.000000 0.000000 0.000000 10.000000 
L_humerus 0.000000 0.000000 0.000000 0.000000 0.000000 0.000000 10.000000 
R_humerus 0.000000 0.000000 0.000000 0.000000 0.000000 0.000000 10.000000 
weapon_bone 0.000000 0.000000 0.000000 0.000000 0.000000 0.000000 10.000000 
Bip01_Head 0.000000 0.000000 0.000000 0.000000 0.000000 0.000000 10.000000 
eye_left_bone 0.000000 0.000000 0.000000 0.000000 0.000000 0.000000 10.000000 
eye_right_bone 0.000000 0.000000 0.000000 0.000000 0.000000 0.000000 10.000000 
L_forearm 0.000000 0.000000 0.000000 0.000000 0.000000 0.000000 10.000000 
L_front_hand 0.000000 0.000000 0.000000 0.000000 0.000000 0.000000 10.000000 
L_weapon_bone 0.000000 0.000000 0.000000 0.000000 0.000000 0.000000 10.000000 
L_front_hand01_01 0.000000 0.000000 0.000000 0.000000 0.000000 0.000000 10.000000 
L_front_hand02_01 0.000000 0.000000 0.000000 0.000000 0.000000 0.000000 10.000000 
L_front_hand03_01 0.000000 0.000000 0.000000 0.000000 0.000000 0.000000 10.000000 
L_front_hand01_02 0.000000 0.000000 0.000000 0.000000 0.000000 0.000000 10.000000 
L_front_hand02_02 0.000000 0.000000 0.000000 0.000000 0.000000 0.000000 10.000000 
L_front_hand03_02 0.000000 0.000000 0.000000 0.000000 0.000000 0.000000 10.000000 
R_forearm 0.000000 0.000000 0.000000 0.000000 0.000000 0.000000 10.000000 
R_front_hand 0.000000 0.000000 0.000000 0.000000 0.000000 0.000000 10.000000 
R_weapon_bone 0.000000 0.000000 0.000000 0.000000 0.000000 0.000000 10.000000 
R_front_hand01_01 0.000000 0.000000 0.000000 0.000000 0.000000 0.000000 10.000000 
R_front_hand02_01 0.000000 0.000000 0.000000 0.000000 0.000000 0.000000 10.000000 
R_front_hand03_01 0.000000 0.000000 0.000000 0.000000 0.000000 0.000000 10.000000 
R_front_hand01_02 0.000000 0.000000 0.000000 0.000000 0.000000 0.000000 10.000000 
R_front_hand02_02 0.000000 0.000000 0.000000 0.000000 0.000000 0.000000 10.000000 
R_front_hand03_02 0.000000 0.000000 0.000000 0.000000 0.000000 0.000000 10.000000 
null_rope01_connect 0.000000 0.000000 0.000000 0.000000 0.000000 0.000000 10.000000 
Rope1_Seg01 0.000000 0.000000 0.000000 0.000000 0.000000 0.000000 10.000000 
Rope1_Seg02 0.000000 0.000000 0.000000 0.000000 0.000000 0.000000 10.000000 
Rope1_Seg03 0.000000 0.000000 0.000000 0.000000 0.000000 0.000000 10.000000 
Rope1_Seg04 0.000000 0.000000 0.000000 0.000000 0.000000 0.000000 10.000000 
Rope1_Seg05 0.000000 0.000000 0.000000 0.000000 0.000000 0.000000 10.000000 
Rope1_Seg06 0.000000 0.000000 0.000000 0.000000 0.000000 0.000000 10.000000 
Rope1_Seg07 0.000000 0.000000 0.000000 0.000000 0.000000 0.000000 10.000000 
Rope1_Seg09 0.000000 0.000000 0.000000 0.000000 0.000000 0.000000 10.000000 
L_mid_hand01 0.000000 0.000000 0.000000 0.000000 0.000000 0.000000 10.000000 
L_mid_hand02 0.000000 0.000000 0.000000 0.000000 0.000000 0.000000 10.000000 
L_mid_hand03 0.000000 0.000000 0.000000 0.000000 0.000000 0.000000 10.000000 
null_rope02_connect 0.000000 0.000000 0.000000 0.000000 0.000000 0.000000 10.000000 
Rope2_Seg01 0.000000 0.000000 0.000000 0.000000 0.000000 0.000000 10.000000 
Rope2_Seg02 0.000000 0.000000 0.000000 0.000000 0.000000 0.000000 10.000000 
Rope2_Seg03 0.000000 0.000000 0.000000 0.000000 0.000000 0.000000 10.000000 
Rope2_Seg04 0.000000 0.000000 0.000000 0.000000 0.000000 0.000000 10.000000 
Rope2_Seg05 0.000000 0.000000 0.000000 0.000000 0.000000 0.000000 10.000000 
Rope2_Seg06 0.000000 0.000000 0.000000 0.000000 0.000000 0.000000 10.000000 
Rope2_Seg07 0.000000 0.000000 0.000000 0.000000 0.000000 0.000000 10.000000 
Rope2_Seg09 0.000000 0.000000 0.000000 0.000000 0.000000 0.000000 10.000000 
R_mid_hand01 0.000000 0.000000 0.000000 0.000000 0.000000 0.000000 10.000000 
R_mid_hand02 0.000000 0.000000 0.000000 0.000000 0.000000 0.000000 10.000000 
R_mid_hand03 0.000000 0.000000 0.000000 0.000000 0.000000 0.000000 10.000000 
spine02 0.000000 0.000000 0.000000 0.000000 0.000000 0.000000 10.000000 
spine03 0.000000 0.000000 0.000000 0.000000 0.000000 0.000000 10.000000 
pelvis 0.000000 0.000000 0.000000 0.000000 0.000000 0.000000 10.000000 
null_rope03_connect 0.000000 0.000000 0.000000 0.000000 0.000000 0.000000 10.000000 
null_rope04_connect 0.000000 0.000000 0.000000 0.000000 0.000000 0.000000 10.000000 
Rope3_Seg01 0.000000 0.000000 0.000000 0.000000 0.000000 0.000000 10.000000 
Rope3_Seg02 0.000000 0.000000 0.000000 0.000000 0.000000 0.000000 10.000000 
Rope3_Seg03 0.000000 0.000000 0.000000 0.000000 0.000000 0.000000 10.000000 
Rope3_Seg04 0.000000 0.000000 0.000000 0.000000 0.000000 0.000000 10.000000 
Rope3_Seg05 0.000000 0.000000 0.000000 0.000000 0.000000 0.000000 10.000000 
Rope3_Seg06 0.000000 0.000000 0.000000 0.000000 0.000000 0.000000 10.000000 
Rope3_Seg07 0.000000 0.000000 0.000000 0.000000 0.000000 0.000000 10.000000 
Rope3_Seg08 0.000000 0.000000 0.000000 0.000000 0.000000 0.000000 10.000000 
Rope3_Seg09 0.000000 0.000000 0.000000 0.000000 0.000000 0.000000 10.000000 
R_rear_hand01 0.000000 0.000000 0.000000 0.000000 0.000000 0.000000 10.000000 
R_rear_hand02 0.000000 0.000000 0.000000 0.000000 0.000000 0.000000 10.000000 
R_rear_hand03 0.000000 0.000000 0.000000 0.000000 0.000000 0.000000 10.000000 
Rope4_Seg01 0.000000 0.000000 0.000000 0.000000 0.000000 0.000000 10.000000 
Rope4_Seg02 0.000000 0.000000 0.000000 0.000000 0.000000 0.000000 10.000000 
Rope4_Seg03 0.000000 0.000000 0.000000 0.000000 0.000000 0.000000 10.000000 
Rope4_Seg04 0.000000 0.000000 0.000000 0.000000 0.000000 0.000000 10.000000 
Rope4_Seg05 0.000000 0.000000 0.000000 0.000000 0.000000 0.000000 10.000000 
Rope4_Seg06 0.000000 0.000000 0.000000 0.000000 0.000000 0.000000 10.000000 
Rope4_Seg07 0.000000 0.000000 0.000000 0.000000 0.000000 0.000000 10.000000 
Rope4_Seg08 0.000000 0.000000 0.000000 0.000000 0.000000 0.000000 10.000000 
Rope4_Seg09 0.000000 0.000000 0.000000 0.000000 0.000000 0.000000 10.000000 
L_rear_hand01 0.000000 0.000000 0.000000 0.000000 0.000000 0.000000 10.000000 
L_rear_hand02 0.000000 0.000000 0.000000 0.000000 0.000000 0.000000 10.000000 
L_rear_hand03 0.000000 0.000000 0.000000 0.000000 0.000000 0.000000 10.000000 
#Beginning of Data. Separated by tabs
#Fr	Tx	Ty	Tz	Rx	Ry	Rz	SF
[MASTER]
40 0.000003 -0.000071 4796.846680 0.001660 0.001660 0.001660 4796.846680
41 0.000003 -0.000076 4796.682617 0.001660 0.001660 0.001660 4796.682617
[root]
40 -16.502296 -32.071247 1477.619629 -66.401428 -12.235029 -83.499756 1478.059814
41 -16.502296 -32.390224 1477.961426 -66.213676 -12.270217 -82.749977 1478.408447
[chest]
40 -84.512650 -34.090519 0.000000 -153.108200 1.866848 138.579483 91.129311
41 -84.512650 -34.090519 0.000000 -153.108200 1.866848 138.579483 91.129311
[L_mid_tent01]
40 27.299047 22.178972 -249.918671 -167.022537 41.908440 -71.675583 252.381638
41 27.299046 22.178968 -249.918671 -167.022537 41.908440 -71.675583 252.381638
[R_mid_tent01]
40 23.228794 24.509907 226.238495 -138.786163 -81.690529 26.823822 228.744751
41 23.228794 24.509907 226.238495 -138.786179 -81.690498 26.823832 228.744751
[spine01]
40 -0.361383 -0.195265 0.000000 0.002062 0.001122 32.879829 0.410763
41 -0.361383 -0.195265 0.000000 0.002062 0.001122 32.879829 0.410763
[Bip01_Neck]
40 165.484543 71.581718 0.000119 176.643677 -1.657967 43.431911 180.302734
41 165.484543 71.581718 0.000119 176.643677 -1.657967 43.431911 180.302734
[L_humerus]
40 -13.983130 -135.272980 -120.471481 156.317398 70.210068 -112.010254 181.680161
41 -13.983130 -135.272980 -120.471481 156.317398 70.210068 -112.010254 181.680161
[R_humerus]
40 -13.983309 -135.273102 125.287651 -172.382263 -66.903831 -92.553993 184.909012
41 -13.983309 -135.273102 125.287651 -172.382263 -66.903831 -92.553993 184.909012
[weapon_bone]
40 235.964890 -300.705902 0.000000 0.000000 -89.951546 -128.212341 382.234833
41 235.964890 -300.705902 0.000000 0.000000 -89.951546 -128.212341 382.234833
[Bip01_Head]
40 213.326981 186.042236 7.559314 24.434732 5.267117 -43.850155 283.155914
41 213.326996 186.042221 7.559323 23.760984 5.197649 -43.852985 283.155884
[eye_left_bone]
40 -24.626970 125.451866 -64.772606 0.000000 -90.000000 -99.840431 143.318359
41 -24.626970 125.451866 -64.772606 0.000000 -90.000000 -99.840431 143.318359
[eye_right_bone]
40 -24.626970 125.451866 64.327362 0.000000 -89.965736 80.156380 143.117676
41 -24.626970 125.451866 64.327362 0.000000 -89.965736 80.156380 143.117676
[L_forearm]
40 322.776093 0.000000 -0.000119 0.000119 -0.002344 -95.807457 322.776093
41 322.776093 0.000000 -0.000119 0.000119 -0.002344 -95.807457 322.776093
[L_front_hand]
40 241.149185 -0.042021 -3.300071 -178.667953 -1.835447 -27.422350 241.171753
41 241.149185 -0.042021 -3.300071 -178.667953 -1.835447 -27.422350 241.171753
[L_weapon_bone]
40 156.183838 0.000000 0.000000 0.000014 0.000007 0.000001 156.183838
41 156.183838 0.000000 0.000000 0.000014 0.000007 0.000001 156.183838
[L_front_hand01_01]
40 86.095154 20.947098 -0.655860 -0.366594 -0.477154 75.385574 88.609184
41 86.095154 20.947098 -0.655860 -0.366594 -0.477154 75.385574 88.609184
[L_front_hand02_01]
40 86.935165 -11.437475 24.513514 154.399796 -59.883835 -61.369587 91.046425
41 86.935165 -11.437475 24.513514 154.399796 -59.883835 -61.369587 91.046425
[L_front_hand03_01]
40 86.637497 -14.123976 -20.424902 -153.913849 58.118122 -62.702866 90.126129
41 86.637497 -14.123976 -20.424902 -153.913849 58.118122 -62.702866 90.126129
[L_front_hand01_02]
40 71.020905 -0.000179 0.000030 0.000334 -0.002323 -106.379684 71.020905
41 71.020905 -0.000179 0.000030 0.000334 -0.002323 -106.379684 71.020905
[L_front_hand02_02]
40 71.020927 -0.000119 0.000060 0.000334 -0.002323 -106.379684 71.020927
41 71.020927 -0.000119 0.000060 0.000334 -0.002323 -106.379684 71.020927
[L_front_hand03_02]
40 71.020905 -0.000060 0.000060 0.000334 -0.002323 -106.379684 71.020905
41 71.020905 -0.000060 0.000060 0.000334 -0.002323 -106.379684 71.020905
[R_forearm]
40 322.776428 -0.000060 0.000030 0.209504 0.012586 -94.339050 322.776428
41 322.776428 -0.000060 0.000030 0.209504 0.012586 -94.339050 322.776428
[R_front_hand]
40 238.847015 -0.006795 2.210259 -2.635298 -10.645461 -26.312506 238.857239
41 238.847015 -0.006795 2.210259 -2.635298 -10.645461 -26.312506 238.857239
[R_weapon_bone]
40 155.664093 0.002503 -0.000030 0.003487 0.001180 -90.988930 155.664078
41 155.664093 0.002503 -0.000030 0.003487 0.001180 -90.988930 155.664078
[R_front_hand01_01]
40 87.624611 14.231146 22.918642 -154.633499 -59.950619 61.746044 91.683487
41 87.624611 14.231146 22.918642 -154.633484 -59.950619 61.746037 91.683487
[R_front_hand02_01]
40 89.356956 14.367283 -19.491137 154.602661 58.302849 63.744389 92.579636
41 89.356956 14.367283 -19.491137 154.602661 58.302849 63.744389 92.579636
[R_front_hand03_01]
40 87.286232 -22.307278 -0.143439 0.162155 -0.423168 -75.767921 90.091743
41 87.286232 -22.307278 -0.143439 0.162155 -0.423168 -75.767921 90.091743
[R_front_hand01_02]
40 71.020905 0.000060 0.000119 0.002323 -0.000334 106.381714 71.020905
41 71.020905 0.000060 0.000119 0.002323 -0.000334 106.381714 71.020905
[R_front_hand02_02]
40 71.020844 -0.000030 -0.000119 0.002323 -0.000334 106.381714 71.020836
41 71.020844 -0.000030 -0.000119 0.002323 -0.000334 106.381714 71.020836
[R_front_hand03_02]
40 71.020905 0.000000 0.000030 0.002323 -0.000334 106.381714 71.020905
41 71.020905 0.000000 0.000030 0.002323 -0.000334 106.381714 71.020905
[null_rope01_connect]
40 328.732483 0.000000 -0.000238 -164.669876 21.305334 -159.458176 328.732483
41 328.732483 0.000000 -0.000238 -164.384460 20.917114 -158.693085 328.732483
[Rope1_Seg01]
40 0.000004 -0.000072 0.000541 -10.352936 -1.502223 -165.755280 0.000546
41 0.000003 -0.000073 0.000555 -9.893490 -1.326429 -164.961121 0.000560
[Rope1_Seg02]
40 139.999863 -0.000179 0.000000 -14.792506 -15.217906 -15.235945 139.999863
41 139.999863 -0.000179 0.000000 -15.184370 -15.322273 -15.132487 139.999863
[Rope1_Seg03]
40 139.999924 0.000060 -0.000060 -9.526795 -6.387262 -25.924290 139.999924
41 139.999924 0.000060 -0.000060 -9.800714 -6.395449 -25.923941 139.999924
[Rope1_Seg04]
40 139.999924 -0.000060 -0.000119 -6.190392 -27.713062 -24.566702 139.999924
41 139.999924 -0.000060 -0.000119 -6.518898 -27.599892 -24.694035 139.999924
[Rope1_Seg05]
40 139.999832 0.000119 -0.000060 -3.541921 -10.926942 -10.102250 139.999832
41 139.999832 0.000119 -0.000060 -3.612458 -10.818463 -10.222970 139.999832
[Rope1_Seg06]
40 139.999954 0.000119 -0.000060 -1.399669 -3.286410 -4.379907 139.999954
41 139.999954 0.000119 -0.000060 -1.413453 -3.231066 -4.422721 139.999954
[Rope1_Seg07]
40 139.999985 0.000060 0.000000 -0.758698 -1.796012 -2.519214 139.999985
41 139.999985 0.000060 0.000000 -0.762352 -1.764090 -2.541622 139.999985
[Rope1_Seg09]
40 121.602913 0.000119 -0.000089 -89.793175 -1.359789 0.847147 121.602913
41 121.602913 0.000119 -0.000089 -89.793175 -1.359789 0.847147 121.602913
[L_mid_hand01]
40 103.859421 1.038730 8.195221 130.544373 -67.584534 -38.866943 104.187431
41 103.859421 1.038730 8.195221 130.544373 -67.584534 -38.866943 104.187431
[L_mid_hand02]
40 105.572853 -4.139662 -10.864139 -168.923172 43.409309 -73.498886 106.211075
41 105.572853 -4.139662 -10.864139 -168.923172 43.409309 -73.498886 106.211075
[L_mid_hand03]
40 104.641464 17.579376 -3.913581 -6.012627 17.808174 74.893669 106.179977
41 104.641464 17.579376 -3.913581 -6.012627 17.808174 74.893669 106.179977
[null_rope02_connect]
40 328.732849 0.000179 -0.000119 -147.068939 -19.296692 -8.661654 328.732849
41 328.732849 0.000179 -0.000119 -147.253769 -19.881128 -8.062639 328.732849
[Rope2_Seg01]
40 -0.000127 0.000091 0.000000 84.308472 28.133284 20.598045 0.000156
41 -0.000132 0.000091 0.000000 84.772766 27.966040 21.350399 0.000160
[Rope2_Seg02]
40 139.999741 -0.000060 -0.000119 2.580968 2.582901 9.464570 139.999756
41 139.999741 -0.000060 -0.000119 2.491566 2.680171 9.437378 139.999756
[Rope2_Seg03]
40 140.000107 0.000030 0.000000 6.321622 5.916370 18.915131 140.000107
41 140.000107 0.000030 0.000000 6.107706 6.064046 18.871105 140.000107
[Rope2_Seg04]
40 139.999802 0.000000 -0.000060 13.828081 14.965544 34.015568 139.999802
41 139.999802 0.000000 -0.000060 13.376766 15.085245 33.964191 139.999802
[Rope2_Seg05]
40 139.999985 -0.000060 0.000119 6.529936 12.468226 21.327202 139.999985
41 139.999985 -0.000060 0.000119 6.259425 12.373672 21.378902 139.999985
[Rope2_Seg06]
40 139.999893 -0.000030 -0.000119 2.696529 4.745144 14.051003 139.999893
41 139.999893 -0.000030 -0.000119 2.562744 4.616031 14.096412 139.999893
[Rope2_Seg07]
40 139.999893 0.000060 -0.000060 2.499052 4.548944 12.078833 139.999893
41 139.999893 0.000060 -0.000060 2.416755 4.412387 12.126689 139.999893
[Rope2_Seg09]
40 121.338966 0.000089 -0.000060 33.793236 -1.359788 -0.847141 121.338966
41 121.338966 0.000089 -0.000060 33.793236 -1.359788 -0.847141 121.338966
[R_mid_hand01]
40 104.680779 11.144459 -10.335981 -16.212063 45.237240 70.462845 105.778534
41 104.680779 11.144459 -10.335981 -16.212063 45.237247 70.462852 105.778534
[R_mid_hand02]
40 104.070427 2.443552 8.231699 49.067368 -67.749771 39.286453 104.424065
41 104.070427 2.443552 8.231699 49.067368 -67.749771 39.286453 104.424065
[R_mid_hand03]
40 106.028137 -11.221827 -5.996406 -177.101105 15.551026 -76.585571 106.788818
41 106.028137 -11.221827 -5.996406 -177.101105 15.551026 -76.585571 106.788818
[spine02]
40 129.756927 0.001550 0.000119 -1.023899 -3.926965 6.770993 129.756927
41 129.756927 0.001550 0.000119 -1.023899 -3.926965 6.770993 129.756927
[spine03]
40 78.613991 0.081736 -4.898992 1.040681 4.146420 4.212376 78.766525
41 78.613983 0.081736 -4.898991 1.040681 4.146420 4.212376 78.766518
[pelvis]
40 169.435242 0.051022 0.000000 0.019518 -0.190233 -10.721436 169.435257
41 169.435242 0.051022 0.000000 0.019518 -0.190233 -10.721436 169.435257
[null_rope03_connect]
40 -1.257226 -2.466202 137.391083 26.083712 -64.515739 41.798103 137.418976
41 -1.257226 -2.466202 137.391083 27.388439 -63.991741 40.362068 137.418976
[null_rope04_connect]
40 -1.259640 -2.480268 -137.844437 26.083712 -64.515739 41.798103 137.872513
41 -1.259640 -2.480268 -137.844437 27.388439 -63.991741 40.362068 137.872513
[Rope3_Seg01]
40 0.000000 0.000000 0.000000 14.605511 -3.380029 -55.755600 0.000000
41 0.000000 0.000000 0.000000 14.421847 -4.359391 -56.550270 0.000000
[Rope3_Seg02]
40 139.999924 -0.000119 0.000060 -2.624256 -5.941633 3.620822 139.999924
41 139.999924 -0.000119 0.000060 -2.481511 -5.875391 3.681149 139.999924
[Rope3_Seg03]
40 139.999924 -0.000119 0.000119 -3.959385 -9.179750 5.096929 139.999924
41 139.999924 -0.000119 0.000119 -3.824106 -9.165223 5.274138 139.999924
[Rope3_Seg04]
40 139.999924 0.000119 0.000000 -6.213468 -14.908093 7.852871 139.999924
41 139.999924 0.000119 0.000000 -6.238303 -15.179355 8.359102 139.999924
[Rope3_Seg05]
40 139.999924 -0.000238 0.000060 -7.497532 -21.012535 10.521833 139.999924
41 139.999924 -0.000238 0.000060 -7.855124 -21.823414 11.485853 139.999924
[Rope3_Seg06]
40 139.999893 -0.000119 -0.000060 -1.356485 -14.550815 0.718354 139.999893
41 139.999893 -0.000119 -0.000060 -1.273423 -14.401402 0.740866 139.999893
[Rope3_Seg07]
40 139.999771 0.000060 -0.000119 1.149837 -9.720628 -6.189540 139.999771
41 139.999771 0.000060 -0.000119 1.082948 -8.579844 -6.461175 139.999771
[Rope3_Seg08]
40 139.999985 -0.000060 0.000000 1.858848 -9.073368 -3.014103 139.999985
41 139.999985 -0.000060 0.000000 1.683012 -8.278884 -3.011643 139.999985
[Rope3_Seg09]
40 90.185997 -0.000179 -0.000060 89.793228 -1.359877 -0.847183 90.185997
41 90.185997 -0.000179 -0.000060 89.793228 -1.359877 -0.847183 90.185997
[R_rear_hand01]
40 103.366196 -6.073594 -10.757982 -177.714203 24.565960 -73.910950 104.101845
41 103.366196 -6.073594 -10.757982 -177.714203 24.565960 -73.910950 104.101845
[R_rear_hand02]
40 100.509819 12.039542 -7.992327 -12.874829 36.868488 72.167213 101.543350
41 100.509819 12.039542 -7.992327 -12.874829 36.868488 72.167213 101.543350
[R_rear_hand03]
40 101.539970 5.215704 5.435467 71.484581 -71.816628 21.513813 101.819031
41 101.539970 5.215704 5.435467 71.484581 -71.816628 21.513813 101.819031
[Rope4_Seg01]
40 0.000010 0.000004 -0.000017 -97.828285 -11.775329 -107.957695 0.000020
41 0.000010 0.000003 -0.000014 -97.660416 -12.109111 -108.645203 0.000017
[Rope4_Seg02]
40 139.999985 0.000060 0.000119 0.100811 3.271804 -8.151211 139.999985
41 139.999985 0.000060 0.000119 0.184435 3.326960 -8.039730 139.999985
[Rope4_Seg03]
40 139.999924 0.000000 -0.000238 -0.086311 4.296934 -10.926070 139.999924
41 139.999924 0.000000 -0.000238 0.056424 4.284403 -10.597560 139.999924
[Rope4_Seg04]
40 139.999985 0.000000 0.000119 -0.491284 6.208584 -14.261815 139.999985
41 139.999985 0.000000 0.000119 -0.227898 6.073272 -13.477942 139.999985
[Rope4_Seg05]
40 139.999802 -0.000060 -0.000119 -0.566300 6.753865 -14.457241 139.999802
41 139.999802 -0.000060 -0.000119 -0.241607 6.860636 -13.650243 139.999802
[Rope4_Seg06]
40 139.999924 0.000000 0.000060 -0.113876 1.605244 -9.993971 139.999924
41 139.999924 0.000000 0.000060 0.107646 1.570002 -9.995823 139.999924
[Rope4_Seg07]
40 139.999802 0.000000 0.000000 -0.275517 -2.565630 -9.099169 139.999802
41 139.999802 0.000000 0.000000 -0.145097 -3.193843 -10.030970 139.999802
[Rope4_Seg08]
40 139.999924 0.000000 0.000119 -2.730606 -1.055068 -8.723568 139.999924
41 139.999924 0.000000 0.000119 -2.791301 -2.059413 -9.776928 139.999924
[Rope4_Seg09]
40 90.185791 0.000060 0.000060 -135.617828 2.228885 0.850567 90.185791
41 90.185791 0.000060 0.000060 -135.617828 2.228885 0.850567 90.185791
[L_rear_hand01]
40 101.696655 -8.392275 -7.654577 -12.874829 -36.868488 107.832764 102.329041
41 101.696655 -8.392275 -7.654577 -12.874829 -36.868488 107.832764 102.329041
[L_rear_hand02]
40 102.726799 -1.568258 5.773216 71.484581 71.816628 158.486160 102.900848
41 102.726799 -1.568258 5.773216 71.484581 71.816628 158.486160 102.900848
[L_rear_hand03]
40 104.552910 9.721220 -10.420293 -177.714203 -24.565960 -106.089035 105.519653
41 104.552910 9.721220 -10.420293 -177.714203 -24.565960 -106.089035 105.519653
